<?xml version="1.0" encoding="utf-8"?>
<!-- Generator: Adobe Illustrator 17.1.0, SVG Export Plug-In . SVG Version: 6.00 Build 0)  -->
<!DOCTYPE svg PUBLIC "-//W3C//DTD SVG 1.1//EN" "http://www.w3.org/Graphics/SVG/1.1/DTD/svg11.dtd">
<svg version="1.1" id="Layer_2" xmlns="http://www.w3.org/2000/svg" xmlns:xlink="http://www.w3.org/1999/xlink" x="0px" y="0px"
	 viewBox="90 144 735 288" style="enable-background:new 90 144 735 288;" xml:space="preserve">
<g>
	<path d="M109.1,160.7c0,0,1.3,3.3,2.6,9.3c0.7,3.3,1.3,6.6,2.6,11.2c0.7,4.6,2,9.3,2.6,14.5c2,10.6,4,23.1,6,36.4s4,27.8,5.3,41.7
		c0.7,7.3,1.3,14.5,2,21.2c0,3.3,0.7,6.6,0.7,10.6c0,3.3,0.7,6.6,0.7,10.6c0,6.6,0.7,13.2,1.3,19.2s0.7,11.9,1.3,17.2
		s1.3,9.9,2,14.5c0.7,4.6,1.3,7.9,2,10.6c1.3,6,2,9.3,2,9.3v0.7c0.7,2.6-1.3,4.6-3.3,5.3c-2,0.7-4.6-0.7-5.3-3.3
		c0,0-0.7-3.3-2.6-9.9c-0.7-3.3-2-7.3-2.6-11.2c-0.7-4.6-1.3-9.3-2-14.5c-0.7-5.3-1.3-11.2-2-17.2c-0.7-6-1.3-12.6-1.3-19.2
		c0-3.3-0.7-6.6-0.7-9.9c0-3.3-0.7-6.6-0.7-10.6c-0.7-7.3-1.3-13.9-2-21.2c-1.3-13.9-2.6-28.4-4.6-41.7c-1.3-13.2-2.6-25.8-4.6-36.4
		c-0.7-5.3-1.3-9.9-2-13.9c-0.7-4-1.3-7.9-2-10.6c-0.7-6.6-1.3-10.6-1.3-10.6l0,0c-0.7-2,0.7-3.3,2.6-4
		C107.1,158.1,108.5,159.4,109.1,160.7z"/>
</g>
<g>
	<path d="M181.2,156.1c0,0-1.3,2-4,4.6c-1.3,1.3-2,3.3-3.3,5.3c-1.3,2-2.6,4.6-4,7.9c-1.3,2.6-2.6,6.6-4.6,9.9
		c-1.3,3.3-2.6,7.3-4.6,11.2c-2.6,7.9-6,16.5-8.6,25.1c-5.3,17.2-9.9,34.4-14.5,47.6c-2,6.6-4.6,11.9-6.6,15.9c-0.7,2-2,3.3-2.6,4.6
		s-1.3,1.3-1.3,1.3c-1.3,2-4,2.6-6,1.3s-2.6-4-1.3-6l0.7-0.7c0,0,0-0.7,0.7-1.3s1.3-1.3,2-3.3c1.3-3.3,4-7.9,6-14.5
		c4.6-12.6,9.3-29.8,14.5-47.6c2.6-8.6,5.3-17.2,8.6-25.1c1.3-4,3.3-7.9,4.6-11.2c2-3.3,2.6-7.3,4.6-9.9c1.3-3.3,2.6-6,4.6-8.6
		c1.3-2.6,2.6-4.6,4-6.6c2.6-3.3,4-4.6,4-4.6c2-2,4.6-2,6.6-0.7C181.9,152.1,182.5,154.8,181.2,156.1L181.2,156.1z"/>
</g>
<g>
	<path d="M126.3,312.2c0,0,0.7,0,2,0c1.3,0,2.6,0.7,4.6,0.7c1.3,0,2.6,0,4,0.7s3.3,1.3,4.6,2c2.6,2,5.3,4.6,7.3,7.3
		c2.6,2.6,5.3,5.3,7.9,8.6c2.6,3.3,5.3,6.6,7.9,9.9c6,6.6,11.9,13.9,18.5,20.5c3.3,3.3,6.6,6.6,9.9,9.9s6.6,6,9.9,8.6
		c3.3,2.6,6.6,5.3,9.9,7.3c3.3,2,6.6,4,9.9,6c3.3,1.3,6,3.3,8.6,4c2.6,0.7,4.6,2,6.6,2.6c4,0.7,6,1.3,6,1.3h0.7c1.3,0,2,2,2,3.3
		s-2,2-3.3,2c0,0-2.6-0.7-6.6-1.3c-2-0.7-4.6-1.3-7.3-2.6c-2.6-0.7-6-2.6-9.3-4s-6.6-4-9.9-6c-3.3-2.6-7.3-4.6-10.6-7.9
		c-3.3-2.6-7.3-6-10.6-9.3c-3.3-3.3-7.3-6.6-10.6-9.9c-6.6-6.6-13.2-13.9-19.2-20.5c-2.6-3.3-6-6.6-8.6-9.9c-2.6-3.3-5.3-6-7.3-8.6
		c-2.6-2.6-4.6-4.6-6.6-6c-2-1.3-3.3-1.3-5.3-1.3s-3.3,0-4.6,0.7c-1.3,0-2,0-2,0c-2.6,0.7-4.6-1.3-5.3-3.3c-0.7-2,1.3-4.6,3.3-5.3
		C125.7,312.2,126.3,312.2,126.3,312.2z"/>
</g>
<g>
	<path d="M100.5,318.1C100.5,318.1,101.2,318.1,100.5,318.1c0-0.7,0.7-1.3,1.3-2.6c1.3-1.3,2.6-3.3,5.3-5.3c0.7-0.7,1.3-0.7,2-1.3
		l0.7-0.7l0,0l0,0c1.3-0.7,0,0,0.7,0l0,0c0.7,0,0.7,0,1.3-0.7h0.7c2.6,0,4,0,6,0c4,0.7,8.6,1.3,13.2,2c19.8,2,48.9,4,82.7,3.3
		c8.6,0,17.2-0.7,26.5-1.3c9.3-0.7,18.5-2,28.4-3.3c19.2-2.6,39.7-6,60.8-11.2c10.6-2.6,20.5-6,30.4-9.9c9.9-4.6,19.8-9.9,25.1-17.9
		c2.6-4,4-8.6,2.6-13.2l-0.7-2c0,0.7,0-0.7,0,0c0,0,0,0.7,0,0c-0.7-0.7-1.3-1.3-2.6-2c-2-1.3-4.6-2-7.3-3.3c-10.6-4-21.2-6-32.4-7.3
		c-21.8-2.6-45.6-1.3-64.2,9.3c-9.3,5.3-16.5,13.2-21.2,22.5c-4.6,9.3-6,19.8-5.3,30.4c0,10.6,2,20.5,4.6,30.4
		c1.3,4.6,2.6,9.9,4.6,13.9c2,4.6,4.6,8.6,7.3,12.6c10.6,15.9,26.5,26.5,41,35.1c15.2,7.9,29.8,13.2,43,16.5
		c13.2,3.3,25.8,4.6,35.1,4.6c9.9,0,17.9-0.7,22.5-1.3c2.6-0.7,4.6-0.7,6-1.3c1.3,0,2-0.7,2-0.7l0,0c1.3,0,2.6,0.7,2.6,2
		s-0.7,2.6-2,2.6c0,0-0.7,0-2,0.7c-1.3,0.7-3.3,0.7-6,1.3c-5.3,0.7-13.2,2-23.8,2c-9.9,0-22.5-1.3-36.4-4.6
		c-13.9-3.3-29.1-8.6-45-16.5c-15.2-8.6-31.7-19.8-43.6-36.4c-3.3-4-5.3-8.6-7.9-13.2c-2-5.3-4-9.9-5.3-15.2
		c-2.6-9.9-4.6-21.2-4.6-32.4s1.3-23.1,6-33.7c4.6-11.2,13.2-20.5,23.8-26.5s22.5-9.3,33.7-10.6c11.9-1.3,23.8-1.3,35.1,0
		c11.9,1.3,23.1,4,34.4,7.9c2.6,1.3,5.3,2,8.6,4c1.3,0.7,2.6,2,4.6,3.3c0,0,0.7,0.7,1.3,2c0.7,1.3,0,0.7,0.7,2l0.7,2.6
		c1.3,6.6-0.7,13.9-4,19.2c-7.3,10.6-18.5,16.5-28.4,21.2c-10.6,4.6-21.2,7.9-31.7,10.6c-19.2,6-40.3,9.3-60.2,11.9
		c-9.9,1.3-19.2,2-29.1,2.6c-9.3,0.7-18.5,1.3-27.1,1.3c-35.1,0-63.5-2.6-83.3-4.6c-5.3-0.7-9.3-0.7-13.2-0.7c-2,0-4,0-4.6,0l0,0
		h0.7l0,0c0,0-0.7,0,0.7,0l0,0l0,0l-0.7,0.7c-0.7,0.7-1.3,0.7-2,1.3c-4.6,2.6-4.6,4-5.3,4c-1.3,1.3-3.3,2-4.6,0.7
		C100.5,321.4,100.5,319.5,100.5,318.1z"/>
</g>
<g>
	<path d="M195.1,360.5c1.3-32.4,3.3-64.2,5.3-96.6c1.3-15.9,2.6-32.4,4-48.3c0.7-7.9,2-15.9,2.6-24.5c0.7-4,1.3-7.9,2-12.6l1.3-6
		c0.7-2,1.3-4.6,2.6-7.3c1.3-2.6,5.3-4,8.6-2.6c2,0.7,3.3,2.6,4,4.6v0.7l0,0c2.6,12.6,4.6,25.1,6,37.7c2,12.6,4,25.1,6,37.7
		c2,12.6,4.6,25.1,7.3,37c1.3,6,2.6,11.9,4.6,17.9c0.7,3.3,2,6,3.3,8.6c0.7,2.6,2.6,5.3,4,8.6v0.7c0.7,2,0,3.3-2,4.6
		c-1.3,0.7-3.3,0-4-1.3c-1.3-2.6-3.3-6-4.6-8.6c-1.3-3.3-2.6-6-3.3-9.3c-2-6-4-11.9-6-18.5c-3.3-12.6-6-24.5-8.6-37
		c-2.6-12.6-5.3-25.1-7.3-37.7c-2.6-13.2-5.3-25.8-7.9-37.7l0,0l11.9,2l-1.3,4l-1.3,5.3c-0.7,4-1.3,7.9-2,11.2
		c-1.3,7.9-2,15.9-2.6,23.8c-1.3,15.9-2.6,31.7-4,47.6c-2,31.7-4,64.2-5.3,95.9c0,4-3.3,6.6-6.6,6.6
		C197.7,367.1,195.1,364.4,195.1,360.5L195.1,360.5z"/>
</g>
<g>
	<path d="M239.4,263.3c0,0-0.7,1.3-2,2.6c-0.7,0.7-1.3,2-2.6,3.3c-0.7,1.3-1.3,2.6-2.6,4.6c-0.7,1.3-2,3.3-2.6,5.3c-0.7,2-2,4-2.6,6
		c-2,4-4,9.3-6,13.9c-4,9.3-7.3,19.2-9.3,26.5c-0.7,2-0.7,3.3-1.3,4.6s-0.7,2.6-0.7,3.3c0,2-0.7,2.6-0.7,2.6v1.3
		c-0.7,3.3-4,6-7.3,5.3s-6-4-5.3-7.3c0,0,0,0,0-0.7c0,0,0-1.3,0.7-4c0-1.3,0.7-3.3,1.3-4.6s1.3-3.3,2-5.3
		c2.6-7.9,6.6-17.2,11.2-26.5c2.6-4.6,4.6-9.3,7.3-13.9c1.3-2,2.6-4,3.3-6c1.3-2,2.6-4,3.3-5.3c1.3-2,2-3.3,3.3-4.6s2-2,2.6-3.3
		c1.3-2,2.6-2.6,2.6-2.6c1.3-1.3,3.3-1.3,4.6-0.7C240.1,259.3,240.1,261.3,239.4,263.3L239.4,263.3z"/>
</g>
<g>
	<path d="M267.2,354.5c1.3,0.7,2.6,1.3,4,2.6l4,2.6c2.6,2,5.3,3.3,7.3,5.3c5.3,3.3,10.6,6,15.9,7.3c5.3,1.3,11.2,2,15.9,0
		c2.6-0.7,4.6-2,7.3-4c2-2,4-4,6-6c2-2,3.3-4.6,4.6-7.3s2.6-5.3,4-7.9c1.3-2.6,2.6-5.3,3.3-7.9c1.3-2.6,2-5.3,2.6-8.6
		c2-6,3.3-11.9,4.6-17.2c1.3-6,2.6-11.9,3.3-17.9c0.7-2.6,2.6-4,5.3-3.3c2,0.7,3.3,2,3.3,4l0,0c0.7,6.6,1.3,13.9,2.6,21.2
		c1.3,6.6,3.3,13.9,5.3,19.8c2.6,6.6,6,12.6,9.9,15.9c2,2,4.6,2.6,7.3,2.6c2.6,0,5.3-0.7,7.9-2s5.3-3.3,7.9-5.3
		c2.6-2,5.3-4.6,7.3-7.3c2-2,3.3-4.6,4.6-7.9c1.3-2.6,2-6,2.6-9.3c0.7-6.6,0.7-13.2,0-20.5c0-3.3-0.7-7.3-0.7-11.2c0-2,0-4,0-6
		c0-2,0.7-4.6,3.3-7.9l0,0c1.3-2,4-2,6-0.7c0.7,0.7,1.3,1.3,1.3,2l0,0c1.3,6,0.7,11.2,0.7,15.9c0,5.3,0,9.9,0,15.2
		c0.7,9.9,2.6,19.2,8.6,25.1c2,2,3.3,2.6,4.6,3.3s2.6,0.7,4,0c2.6-1.3,6.6-5.3,9.3-8.6c6-7.9,12.6-16.5,19.8-23.8l0,0
		c2-2,4.6-2,6.6,0c0.7,0.7,1.3,2,1.3,3.3l0,0c0,2.6,1.3,6,2.6,9.3c1.3,3.3,3.3,6,5.3,9.3c4,5.3,9.9,9.9,15.9,11.9
		c6,2,12.6,2,19.2-1.3c6-2.6,11.9-7.3,17.2-11.9l0,0l0,0c2-2,4.6-2,6.6,0c3.3,3.3,7.9,6.6,13.2,9.3c2.6,1.3,4.6,2,7.3,2.6
		c2.6,0.7,5.3,1.3,7.9,1.3s5.3,0,7.9,0c1.3,0,2.6,0,4-0.7c1.3-0.7,2.6-0.7,4-1.3c2.6-0.7,5.3-2,7.3-3.3c2.6-1.3,4.6-2.6,7.3-4l0,0
		l0,0c0.7-0.7,1.3-0.7,2-0.7c3.3,0,7.3,0,10.6,0.7c3.3,0,6.6,0.7,10.6,1.3l9.9,2c3.3,0.7,6.6,1.3,9.9,1.3l-2,0.7
		c2-2.6,4.6-4.6,7.3-6.6c2.6-2,5.3-4,7.9-6c5.3-3.3,11.2-6.6,17.9-8.6c3.3-0.7,6.6-1.3,9.9-0.7c3.3,0,7.3,2,9.3,4.6
		c1.3,1.3,2.6,2.6,3.3,4c0.7,1.3,1.3,3.3,2,4.6c1.3,3.3,1.3,6.6,2,9.9c0,0.7,0,0.7-0.7,0.7c-0.7,0-0.7,0-0.7-0.7l0,0
		c-1.3-6-3.3-12.6-7.3-16.5c-4.6-4-11.2-4-16.5-2c-6,2-11.2,5.3-16.5,8.6c-2.6,2-5.3,4-7.3,6c-2.6,2-4.6,4.6-7.3,6l0,0
		c-0.7,0.7-1.3,0.7-2,0.7c-3.3,0-7.3,0-10.6,0s-6.6-0.7-9.9-1.3c-6.6-1.3-13.2-1.3-19.8-2l2-0.7l0,0c-2.6,2-5.3,4-7.9,5.3
		c-2.6,1.3-5.3,2.6-8.6,4c-1.3,0.7-3.3,0.7-4.6,1.3c-1.3,0.7-3.3,0.7-4.6,0.7c-3.3,0.7-6.6,0.7-9.3,0.7c-3.3,0-6.6-0.7-9.3-1.3
		c-3.3-0.7-6-2-9.3-2.6c-6-2.6-11.2-6-15.9-10.6h7.3l0,0c-6,6-12.6,11.2-20.5,14.5c-4,2-8.6,2.6-12.6,3.3c-4.6,0-9.3-0.7-13.2-2
		c-8.6-3.3-15.2-8.6-20.5-15.9c-2.6-3.3-4.6-7.3-6.6-11.2c-1.3-4-3.3-7.9-3.3-13.2l7.9,3.3l0,0c-7.3,6.6-12.6,14.5-19.2,23.1
		c-2,2-3.3,4-5.3,6c-2,2-4.6,4-7.9,5.3c-3.3,1.3-7.9,1.3-10.6,0c-3.3-1.3-6-3.3-7.3-5.3c-4-4-7.3-9.3-8.6-15.2
		c-1.3-5.3-2-10.6-2.6-15.9c0-5.3,0-10.6,0-15.2c0-5.3,0.7-9.9-0.7-13.9l7.3,2c0,0-0.7,0.7-0.7,2.6c0,1.3,0,3.3,0,4.6l1.3,10.6
		c0.7,7.3,1.3,15.2,0.7,22.5c-0.7,4-1.3,7.9-2.6,11.9s-3.3,7.3-6.6,10.6c-2.6,3.3-5.3,5.3-8.6,7.9c-3.3,2.6-6.6,4.6-9.9,6.6
		c-4,2-7.9,3.3-12.6,2.6c-4.6,0-9.3-2-12.6-4.6c-6.6-6-10.6-13.2-13.2-20.5s-4.6-14.5-6-21.8s-2-14.5-2.6-22.5l0,0l8.6,0.7
		c-1.3,6-2,11.9-4,18.5c-1.3,6-3.3,11.9-5.3,17.9c-0.7,3.3-2,6-3.3,8.6c-1.3,2.6-2.6,6-4,8.6c-1.3,2.6-2.6,6-4.6,8.6
		c-1.3,2.6-3.3,5.3-6,7.9c-2,2.6-4.6,4.6-7.3,6.6c-2.6,2-6,4-9.3,4.6c-3.3,1.3-6.6,1.3-10.6,1.3c-3.3,0-6.6-0.7-9.9-1.3
		c-6.6-2-11.9-5.3-17.2-8.6c-2.6-2-5.3-3.3-7.9-5.3l-4-2.6c-1.3-0.7-2-1.3-4-2c-1.3-0.7-2-2.6-1.3-4.6
		C263.2,353.9,265.2,353.9,267.2,354.5L267.2,354.5z"/>
</g>
<g>
	<path d="M650.1,342c-0.7,0.7-2,2-1.3,2.6c0,0.7,0,1.3-0.7,2c0,0.7,0,1.3,0.7,2c0,0.7,0.7,1.3,1.3,2c0.7,0.7,1.3,1.3,2,1.3
		c0.7,0.7,1.3,0.7,2,1.3s2,0.7,2.6,0.7c0.7,0,2,0,2.6,0c0.7,0,2,0,2.6,0c0.7,0,2,0,2.6-0.7c2-0.7,4-1.3,6-2c2-0.7,4-2,6-2.6l5.3-3.3
		l0,0c1.3-0.7,2.6-0.7,4-0.7l0,0c2.6,1.3,6,2,8.6,3.3s5.3,3.3,7.9,5.3c1.3,0.7,2.6,2,3.3,3.3l0.7,0.7l0.7,0.7l0,0
		c0.7,0.7-0.7-0.7-0.7-0.7l0,0l0,0l0,0c0.7,0-1.3-0.7-0.7-0.7h0.7c2,0,5.3-0.7,7.9-0.7c11.2-1.3,22.5-3.3,33.7-4
		c22.5-2,45.6-1.3,68.1,4c0.7,0,1.3,1.3,1.3,2c0,0.7-1.3,1.3-2,1.3c-21.8-4-45-4-66.8-0.7c-11.2,1.3-21.8,3.3-33.1,5.3
		c-2.6,0.7-5.3,1.3-8.6,1.3c-0.7,0-1.3,0-1.3,0c-0.7,0-2.6-0.7-3.3-0.7l0,0l0,0l0,0l-0.7-0.7l0,0l-0.7-0.7l-0.7-0.7
		c-0.7-0.7-2-2-2.6-2.6c-2-1.3-4-2.6-6.6-4c-2.6-0.7-4.6-2-7.3-2.6l0,0l4-0.7l-6.6,3.3c-2.6,0.7-4.6,2-6.6,2.6
		c-2.6,0.7-4.6,1.3-7.3,2c-1.3,0-2.6,0.7-4,0.7c-1.3,0-2.6,0-4,0c-1.3,0-2.6,0-4-0.7c-1.3-0.7-2.6-0.7-4-1.3c-1.3-0.7-2.6-1.3-4-2.6
		c-1.3-0.7-2-2-3.3-3.3c-0.7-1.3-1.3-2.6-2-4s-0.7-3.3-0.7-4.6s0.7-3.3,1.3-4.6c0.7-2,1.3-2,2.6-3.3s3.3-2,4.6-0.7
		C650.8,338,650.8,340,650.1,342L650.1,342z"/>
</g>
</svg>
